<svg width="220" height="60" viewBox="0 0 220 60" fill="none" xmlns="http://www.w3.org/2000/svg">
  <defs>
    <linearGradient id="hotel-gradient" x1="10" y1="16" x2="48" y2="50" gradientUnits="userSpaceOnUse">
      <stop offset="0" stop-color="#F8FAFF"/>
      <stop offset="1" stop-color="#8EC8FF"/>
    </linearGradient>
    <linearGradient id="hotel-accent" x1="18" y1="10" x2="40" y2="44" gradientUnits="userSpaceOnUse">
      <stop offset="0" stop-color="#24468F" stop-opacity="0.85"/>
      <stop offset="1" stop-color="#0F1F3A"/>
    </linearGradient>
    <linearGradient id="hotel-text" x1="70" y1="34" x2="210" y2="34" gradientUnits="userSpaceOnUse">
      <stop offset="0" stop-color="#F8FAFF"/>
      <stop offset="0.5" stop-color="#F8FAFF"/>
      <stop offset="1" stop-color="#A3D8FF"/>
    </linearGradient>
    <filter id="hotel-shadow" x="6" y="2" width="48" height="54" filterUnits="userSpaceOnUse" color-interpolation-filters="sRGB">
      <feOffset dy="2"/>
      <feGaussianBlur stdDeviation="3"/>
      <feColorMatrix type="matrix" values="0 0 0 0 0.1 0 0 0 0 0.18 0 0 0 0 0.35 0 0 0 0.16 0"/>
      <feBlend in2="SourceGraphic" result="shadow"/>
      <feBlend in="SourceGraphic" in2="shadow" result="shape"/>
    </filter>
  </defs>
  <g filter="url(#hotel-shadow)">
    <path d="M22 14H36C38.2091 14 40 15.7909 40 18V44H18V18C18 15.7909 19.7909 14 22 14Z" fill="url(#hotel-accent)"/>
    <path d="M12 22H46C47.6569 22 49 23.3431 49 25V46H9V25C9 23.3431 10.3431 22 12 22Z" fill="url(#hotel-gradient)"/>
    <rect x="21" y="9" width="14" height="5" rx="2.5" fill="#F8FAFF" opacity="0.95"/>
    <path d="M28 4L34 9H22L28 4Z" fill="#F8FAFF" opacity="0.88"/>
    <rect x="16" y="27" width="7" height="8" rx="1.5" fill="#1D3557" opacity="0.9"/>
    <rect x="27" y="27" width="7" height="8" rx="1.5" fill="#1D3557" opacity="0.9"/>
    <rect x="38" y="27" width="7" height="8" rx="1.5" fill="#1D3557" opacity="0.9"/>
    <rect x="23" y="38" width="8" height="10" rx="1.5" fill="#1D3557" opacity="0.9"/>
    <rect x="33" y="38" width="8" height="10" rx="1.5" fill="#1D3557" opacity="0.9"/>
  </g>
  <g font-family="'Poppins','Segoe UI',sans-serif" font-weight="600" letter-spacing="0.02em">
    <text x="70" y="37" font-size="30" fill="url(#hotel-text)">Hoteluxe</text>
    <text x="70" y="50" font-size="12" fill="#D7ECFF" opacity="0.95">Premium Urban Escapes</text>
  </g>
</svg>

